<mxfile host="Electron" modified="2025-01-31T05:26:45.547Z" agent="Mozilla/5.0 (Windows NT 10.0; Win64; x64) AppleWebKit/537.36 (KHTML, like Gecko) draw.io/22.1.2 Chrome/114.0.5735.289 Electron/25.9.4 Safari/537.36" etag="DeYy1LFoXg4pf373875Q" version="22.1.2" type="device">
  <diagram name="Seite-1" id="sSZ6qloXHwr97S6eeayn">
    <mxGraphModel dx="658" dy="387" grid="1" gridSize="10" guides="1" tooltips="1" connect="1" arrows="1" fold="1" page="1" pageScale="1" pageWidth="827" pageHeight="1169" math="0" shadow="0">
      <root>
        <mxCell id="0" />
        <mxCell id="1" parent="0" />
        <mxCell id="qEpekzQ7PJsYgvxXjkqv-10" style="edgeStyle=orthogonalEdgeStyle;rounded=0;orthogonalLoop=1;jettySize=auto;html=1;entryX=0.5;entryY=1;entryDx=0;entryDy=0;" edge="1" parent="1" source="qEpekzQ7PJsYgvxXjkqv-4" target="qEpekzQ7PJsYgvxXjkqv-5">
          <mxGeometry relative="1" as="geometry" />
        </mxCell>
        <mxCell id="qEpekzQ7PJsYgvxXjkqv-4" value="Guest User" style="shape=umlActor;verticalLabelPosition=bottom;verticalAlign=top;html=1;outlineConnect=0;" vertex="1" parent="1">
          <mxGeometry x="400" y="360" width="30" height="60" as="geometry" />
        </mxCell>
        <mxCell id="qEpekzQ7PJsYgvxXjkqv-12" style="edgeStyle=orthogonalEdgeStyle;rounded=0;orthogonalLoop=1;jettySize=auto;html=1;entryX=0.511;entryY=0.958;entryDx=0;entryDy=0;entryPerimeter=0;" edge="1" parent="1" source="qEpekzQ7PJsYgvxXjkqv-5" target="qEpekzQ7PJsYgvxXjkqv-11">
          <mxGeometry relative="1" as="geometry">
            <mxPoint x="415" y="170" as="targetPoint" />
          </mxGeometry>
        </mxCell>
        <mxCell id="qEpekzQ7PJsYgvxXjkqv-5" value="View Site" style="ellipse;whiteSpace=wrap;html=1;aspect=fixed;fillColor=#dae8fc;strokeColor=#6c8ebf;" vertex="1" parent="1">
          <mxGeometry x="388" y="250" width="54" height="54" as="geometry" />
        </mxCell>
        <mxCell id="qEpekzQ7PJsYgvxXjkqv-11" value="Exit Game" style="ellipse;whiteSpace=wrap;html=1;aspect=fixed;fillColor=#dae8fc;strokeColor=#6c8ebf;" vertex="1" parent="1">
          <mxGeometry x="388" y="110" width="54" height="54" as="geometry" />
        </mxCell>
        <mxCell id="qEpekzQ7PJsYgvxXjkqv-15" value="Choose Options" style="ellipse;whiteSpace=wrap;html=1;aspect=fixed;fillColor=#dae8fc;strokeColor=#6c8ebf;" vertex="1" parent="1">
          <mxGeometry x="570" y="180" width="54" height="54" as="geometry" />
        </mxCell>
        <mxCell id="qEpekzQ7PJsYgvxXjkqv-16" value="Start Game" style="ellipse;whiteSpace=wrap;html=1;aspect=fixed;fillColor=#dae8fc;strokeColor=#6c8ebf;" vertex="1" parent="1">
          <mxGeometry x="570" y="110" width="54" height="54" as="geometry" />
        </mxCell>
        <mxCell id="qEpekzQ7PJsYgvxXjkqv-17" value="Play Again" style="ellipse;whiteSpace=wrap;html=1;aspect=fixed;fillColor=#dae8fc;strokeColor=#6c8ebf;" vertex="1" parent="1">
          <mxGeometry x="570" y="250" width="54" height="54" as="geometry" />
        </mxCell>
        <mxCell id="qEpekzQ7PJsYgvxXjkqv-20" value="" style="endArrow=classic;html=1;rounded=0;entryX=0;entryY=0.5;entryDx=0;entryDy=0;" edge="1" parent="1" target="qEpekzQ7PJsYgvxXjkqv-16">
          <mxGeometry width="50" height="50" relative="1" as="geometry">
            <mxPoint x="420" y="360" as="sourcePoint" />
            <mxPoint x="470" y="310" as="targetPoint" />
          </mxGeometry>
        </mxCell>
        <mxCell id="qEpekzQ7PJsYgvxXjkqv-22" value="" style="endArrow=classic;html=1;rounded=0;entryX=0;entryY=0.5;entryDx=0;entryDy=0;" edge="1" parent="1" target="qEpekzQ7PJsYgvxXjkqv-15">
          <mxGeometry width="50" height="50" relative="1" as="geometry">
            <mxPoint x="420" y="360" as="sourcePoint" />
            <mxPoint x="470" y="310" as="targetPoint" />
          </mxGeometry>
        </mxCell>
        <mxCell id="qEpekzQ7PJsYgvxXjkqv-23" value="" style="endArrow=classic;html=1;rounded=0;entryX=0;entryY=0.5;entryDx=0;entryDy=0;" edge="1" parent="1" target="qEpekzQ7PJsYgvxXjkqv-17">
          <mxGeometry width="50" height="50" relative="1" as="geometry">
            <mxPoint x="420" y="360" as="sourcePoint" />
            <mxPoint x="470" y="310" as="targetPoint" />
          </mxGeometry>
        </mxCell>
        <mxCell id="qEpekzQ7PJsYgvxXjkqv-24" value="View Score" style="ellipse;whiteSpace=wrap;html=1;aspect=fixed;fillColor=#dae8fc;strokeColor=#6c8ebf;" vertex="1" parent="1">
          <mxGeometry x="750" y="180" width="54" height="54" as="geometry" />
        </mxCell>
        <mxCell id="qEpekzQ7PJsYgvxXjkqv-25" value="Add/Modify Questions" style="ellipse;whiteSpace=wrap;html=1;aspect=fixed;fillColor=#dae8fc;strokeColor=#6c8ebf;" vertex="1" parent="1">
          <mxGeometry x="750" y="110" width="54" height="54" as="geometry" />
        </mxCell>
        <mxCell id="qEpekzQ7PJsYgvxXjkqv-27" value="" style="endArrow=classic;html=1;rounded=0;entryX=0;entryY=0.5;entryDx=0;entryDy=0;" edge="1" parent="1" target="qEpekzQ7PJsYgvxXjkqv-24">
          <mxGeometry width="50" height="50" relative="1" as="geometry">
            <mxPoint x="420" y="360" as="sourcePoint" />
            <mxPoint x="470" y="310" as="targetPoint" />
          </mxGeometry>
        </mxCell>
        <mxCell id="qEpekzQ7PJsYgvxXjkqv-28" value="Play Again" style="ellipse;whiteSpace=wrap;html=1;aspect=fixed;fillColor=#dae8fc;strokeColor=#6c8ebf;" vertex="1" parent="1">
          <mxGeometry x="570" y="250" width="54" height="54" as="geometry" />
        </mxCell>
        <mxCell id="qEpekzQ7PJsYgvxXjkqv-31" style="edgeStyle=orthogonalEdgeStyle;rounded=0;orthogonalLoop=1;jettySize=auto;html=1;entryX=0.5;entryY=1;entryDx=0;entryDy=0;" edge="1" parent="1" source="qEpekzQ7PJsYgvxXjkqv-30" target="qEpekzQ7PJsYgvxXjkqv-25">
          <mxGeometry relative="1" as="geometry" />
        </mxCell>
        <mxCell id="qEpekzQ7PJsYgvxXjkqv-30" value="Developer" style="shape=umlActor;verticalLabelPosition=bottom;verticalAlign=top;html=1;outlineConnect=0;" vertex="1" parent="1">
          <mxGeometry x="762" y="360" width="30" height="60" as="geometry" />
        </mxCell>
        <mxCell id="qEpekzQ7PJsYgvxXjkqv-32" value="View Score" style="ellipse;whiteSpace=wrap;html=1;aspect=fixed;fillColor=#dae8fc;strokeColor=#6c8ebf;" vertex="1" parent="1">
          <mxGeometry x="750" y="180" width="54" height="54" as="geometry" />
        </mxCell>
        <mxCell id="qEpekzQ7PJsYgvxXjkqv-33" value="&lt;font style=&quot;font-size: 17px;&quot;&gt;Use Case diagram for &quot;Wer wird MillionÃ¤r&quot;&lt;/font&gt;" style="text;html=1;align=center;verticalAlign=middle;resizable=0;points=[];autosize=1;strokeColor=none;fillColor=none;" vertex="1" parent="1">
          <mxGeometry x="430" y="50" width="340" height="30" as="geometry" />
        </mxCell>
      </root>
    </mxGraphModel>
  </diagram>
</mxfile>
